<?xml version="1.0" encoding="iso-8859-1"?>
<!-- Uploaded to: SVG Repo, www.svgrepo.com, Generator: SVG Repo Mixer Tools -->
<svg version="1.1" id="Layer_1" xmlns="http://www.w3.org/2000/svg" xmlns:xlink="http://www.w3.org/1999/xlink" 
	 viewBox="0 0 512 512" xml:space="preserve">
<g>
	<rect x="247.977" y="177.586" style="fill:#CCCCCC;" width="15.999" height="187.129"/>
	<polygon style="fill:#CCCCCC;" points="445.433,364.676 429.435,364.676 429.435,280.514 82.55,280.514 82.55,364.676 
		66.551,364.676 66.551,264.516 445.433,264.516 	"/>
</g>
<path style="fill:#BBBBBB;" d="M314.26,453.725L314.26,453.725c0,32.181-26.086,58.267-58.259,58.267h-0.008
	c-32.173,0-58.259-26.086-58.259-58.259v-0.008c0-32.173,26.086-58.259,58.259-58.259H256
	C288.174,395.465,314.26,421.551,314.26,453.725z"/>
<path style="fill:#333333;" d="M511.98,453.733L511.98,453.733c0,32.181-26.086,58.267-58.259,58.267h-0.008
	c-32.173,0-58.259-26.086-58.259-58.259v-0.008c0-32.173,26.086-58.259,58.259-58.259h0.008
	C485.894,395.473,511.98,421.559,511.98,453.733z"/>
<g>
	<path style="fill:#E21B1B;" d="M116.547,453.733L116.547,453.733c0,32.181-26.086,58.267-58.259,58.267H58.28
		C26.106,512,0.02,485.914,0.02,453.741v-0.008c0-32.173,26.086-58.259,58.259-58.259h0.008
		C90.461,395.473,116.547,421.559,116.547,453.733z"/>
	<path style="fill:#E21B1B;" d="M280.614,108.184V93.433c24.006-13.591,32.453-44.077,18.855-68.083
		C285.878,1.344,255.392-7.103,231.386,6.496s-32.453,44.077-18.855,68.083c4.464,7.879,10.975,14.399,18.855,18.855v14.751
		c-46.556,2.176-70.227,33.653-70.227,54.812v17.375h189.681v-17.375C350.841,141.837,327.195,110.36,280.614,108.184z"/>
</g>
</svg>