<?xml version="1.0" standalone="no"?>
<!DOCTYPE svg PUBLIC "-//W3C//DTD SVG 20010904//EN"
 "http://www.w3.org/TR/2001/REC-SVG-20010904/DTD/svg10.dtd">
<svg version="1.0" xmlns="http://www.w3.org/2000/svg"
 width="512.000000pt" height="512.000000pt" viewBox="0 0 512.000000 512.000000"
 preserveAspectRatio="xMidYMid meet">

<g transform="translate(0.000000,512.000000) scale(0.100000,-0.100000)"
fill="#c43030" stroke="none">
<path d="M2135 4770 c-146 -21 -278 -44 -345 -60 -79 -19 -318 -90 -357 -106
-21 -9 -56 -23 -78 -32 -327 -134 -614 -385 -781 -682 -65 -115 -148 -316
-173 -415 -5 -22 -23 -89 -39 -150 -67 -247 -94 -468 -94 -760 0 -288 31 -534
96 -775 15 -52 33 -119 41 -148 20 -74 101 -276 137 -342 17 -30 38 -68 46
-85 58 -111 224 -305 349 -406 371 -303 945 -469 1626 -469 679 0 1295 210
1647 562 288 288 440 633 542 1238 18 107 21 168 22 420 1 290 -8 404 -44 565
-5 22 -16 76 -26 120 -36 172 -107 390 -174 532 -174 370 -461 639 -850 798
-171 70 -427 142 -610 170 -58 10 -127 21 -155 27 -27 5 -185 11 -350 13 -255
4 -319 1 -430 -15z m1268 -1127 c3 -10 8 -36 12 -58 11 -66 32 -95 88 -121 29
-13 59 -24 68 -24 8 0 23 -6 32 -12 15 -12 10 -21 -54 -91 -84 -92 -94 -98
-181 -112 l-67 -10 -320 -314 c-177 -172 -329 -328 -340 -345 -10 -17 -24 -54
-30 -82 -18 -75 -54 -107 -130 -112 -108 -8 -171 45 -171 143 0 82 38 123 144
156 81 25 156 86 156 125 0 42 -42 59 -145 59 -88 0 -92 -1 -165 -43 -128 -74
-184 -168 -183 -309 1 -128 77 -244 195 -299 55 -25 75 -29 153 -29 78 0 98 4
147 28 71 35 131 101 182 200 39 75 113 162 137 162 19 0 31 -71 25 -137 -21
-218 -247 -408 -485 -408 -238 0 -435 152 -497 385 -50 185 41 409 216 530 53
37 186 75 260 75 65 0 185 -22 243 -45 63 -25 86 -20 134 31 24 25 43 53 41
62 -8 43 -159 113 -301 139 -75 13 -101 14 -175 4 -284 -40 -499 -209 -581
-457 -128 -385 87 -793 469 -890 88 -23 282 -23 370 0 206 53 406 242 473 446
41 122 47 230 21 356 -13 61 -14 85 -5 115 15 48 55 81 95 77 33 -3 35 -6 57
-110 23 -109 62 -147 159 -155 67 -6 90 -25 90 -73 0 -49 -21 -63 -101 -71
-62 -5 -76 -10 -96 -33 -22 -26 -26 -37 -59 -169 -12 -46 -34 -93 -71 -149
-29 -44 -53 -91 -53 -105 0 -32 22 -72 59 -107 49 -47 38 -106 -25 -132 -30
-13 -38 -13 -64 1 -16 8 -34 24 -40 35 -16 30 -67 52 -100 45 -16 -3 -48 -20
-71 -37 -54 -39 -165 -86 -243 -103 -115 -24 -136 -45 -136 -136 0 -40 -5 -55
-25 -74 -28 -29 -70 -32 -103 -9 -18 13 -22 25 -22 72 0 100 -27 124 -170 157
-82 19 -169 58 -226 102 -57 43 -102 39 -158 -16 -57 -56 -95 -60 -138 -13
-15 18 -28 41 -28 53 0 11 21 42 47 70 61 65 62 93 6 180 -53 81 -78 138 -93
214 -24 117 -60 155 -149 155 -75 0 -96 15 -96 70 0 59 28 80 105 80 91 0 110
25 151 195 14 56 43 119 88 185 46 67 43 112 -9 161 -22 21 -43 52 -46 69 -5
25 -1 35 29 65 50 50 78 47 132 -12 57 -61 87 -63 176 -7 75 48 176 89 239 99
95 14 130 49 130 129 0 61 29 96 80 96 53 0 80 -34 80 -102 0 -43 4 -54 34
-84 23 -23 43 -34 63 -34 46 0 129 -28 227 -76 105 -51 170 -58 236 -24 51 26
68 54 80 124 13 82 46 140 125 222 73 76 90 86 98 57z"/>
</g>
</svg>
