<?xml version="1.0" standalone="no"?>
<!DOCTYPE svg PUBLIC "-//W3C//DTD SVG 20010904//EN"
 "http://www.w3.org/TR/2001/REC-SVG-20010904/DTD/svg10.dtd">
<svg version="1.0" xmlns="http://www.w3.org/2000/svg"
 width="500.000000pt" height="192.000000pt" viewBox="0 0 500.000000 192.000000"
 preserveAspectRatio="xMidYMid meet">

<g transform="translate(0.000000,192.000000) scale(0.100000,-0.100000)"
fill="#c43030" stroke="none">
<path d="M640 1500 c-205 -44 -322 -124 -395 -273 -61 -125 -78 -210 -78 -382
0 -171 18 -259 77 -380 101 -204 321 -305 641 -292 420 17 628 238 628 672 1
301 -103 504 -306 601 -150 71 -384 94 -567 54z m470 -351 c0 -13 10 -24 30
-30 29 -11 29 -11 12 -34 -9 -14 -33 -31 -52 -39 -44 -18 -219 -189 -232 -227
-16 -47 -80 -51 -91 -7 -8 29 3 45 44 66 18 9 35 25 37 35 7 38 -105 10 -128
-32 -19 -37 -12 -96 16 -124 57 -57 126 -43 174 34 37 60 55 64 47 10 -18
-137 -195 -170 -274 -51 -40 58 -29 132 27 187 39 38 90 49 150 33 36 -10 45
-9 59 5 15 15 14 17 -4 31 -82 61 -236 20 -285 -76 -33 -64 -36 -119 -11 -176
28 -61 55 -92 106 -115 147 -68 312 57 290 221 -5 36 -3 49 10 60 19 15 26 9
40 -33 8 -25 17 -33 38 -35 23 -3 28 -8 25 -25 -2 -14 -11 -23 -26 -25 -14 -2
-27 -14 -33 -30 -6 -15 -20 -46 -31 -70 -20 -40 -20 -43 -3 -62 18 -20 14 -50
-7 -50 -7 0 -22 7 -32 15 -17 13 -23 13 -40 1 -12 -7 -39 -19 -61 -26 -50 -16
-63 -26 -67 -53 -4 -30 -31 -28 -38 2 -3 13 -12 27 -20 32 -99 50 -125 58
-140 44 -37 -34 -72 -9 -45 31 16 25 16 28 -3 67 -11 23 -25 54 -31 70 -6 16
-18 27 -29 27 -10 0 -23 5 -29 11 -17 17 -4 39 23 39 17 0 28 8 35 28 6 15 20
47 30 71 19 40 19 45 3 68 -14 23 -15 27 0 41 14 14 17 14 34 -1 23 -21 36
-21 68 -1 13 9 39 20 56 23 25 5 34 13 40 39 9 35 35 43 44 15 11 -36 22 -48
50 -54 16 -4 45 -13 64 -22 45 -19 77 -8 86 30 8 36 52 95 65 88 5 -4 9 -15 9
-26z"/>
<path d="M1803 1301 c-45 -21 -73 -62 -73 -106 0 -49 32 -95 112 -161 90 -74
104 -97 89 -137 -25 -66 -100 -53 -118 20 -9 40 -26 49 -69 39 -21 -6 -24 -12
-24 -49 0 -68 54 -107 148 -107 84 0 146 48 158 121 9 57 -18 99 -117 184 -75
63 -89 80 -89 105 0 20 8 35 25 46 23 15 27 15 50 0 14 -9 25 -26 25 -37 0
-54 49 -78 83 -41 36 39 11 103 -49 128 -46 19 -101 17 -151 -5z"/>
<path d="M2275 1285 c-14 -13 -25 -32 -25 -42 0 -10 -19 -81 -41 -158 -70
-239 -71 -245 -58 -261 25 -31 79 -1 79 43 0 59 91 94 141 55 14 -12 31 -39
38 -61 12 -42 42 -60 76 -47 23 8 19 33 -39 260 -37 147 -59 213 -72 223 -28
21 -72 16 -99 -12z"/>
<path d="M2658 1299 c-16 -9 -18 -31 -18 -237 0 -239 2 -252 45 -252 40 0 45
17 46 164 1 78 4 170 8 206 6 64 6 65 38 68 75 7 112 -92 55 -146 -15 -15 -36
-32 -47 -38 -19 -10 -18 -13 10 -77 31 -69 88 -153 116 -170 18 -11 69 -2 69
13 0 5 -22 46 -50 92 -27 46 -50 90 -50 99 0 8 14 28 30 44 41 39 55 89 41
141 -13 48 -35 71 -88 90 -45 15 -180 18 -205 3z"/>
<path d="M3083 1303 c-18 -7 -16 -50 3 -57 9 -3 26 -6 39 -6 43 0 47 -19 51
-216 3 -195 8 -214 48 -214 43 0 46 15 46 199 0 186 8 223 45 229 68 10 87 28
59 57 -12 12 -42 15 -147 14 -73 0 -138 -3 -144 -6z"/>
<path d="M3527 1298 c-14 -11 -17 -43 -19 -235 -3 -196 -1 -224 14 -239 11
-11 24 -15 42 -10 26 6 26 8 26 96 0 109 14 130 83 130 69 0 78 -12 85 -119 8
-106 20 -124 66 -103 l26 12 0 230 0 230 -24 11 c-17 8 -29 8 -45 0 -18 -10
-21 -20 -21 -85 0 -99 -17 -121 -89 -120 -28 0 -57 6 -63 12 -6 6 -13 49 -16
94 -3 60 -8 86 -20 96 -9 6 -19 12 -22 12 -3 0 -14 -6 -23 -12z"/>
<path d="M4122 1293 c-14 -12 -31 -58 -52 -133 -17 -63 -44 -162 -60 -220 -27
-92 -28 -106 -15 -119 25 -26 67 -3 80 43 29 103 151 102 176 0 12 -45 39 -64
74 -50 21 8 19 35 -10 151 -59 237 -84 320 -101 332 -25 18 -68 16 -92 -4z"/>
<path d="M4510 1303 c-8 -3 -18 -11 -22 -17 -9 -13 -10 -411 -2 -444 8 -26 48
-39 69 -22 12 10 15 51 15 241 0 215 -1 229 -19 239 -11 5 -21 10 -23 9 -2 0
-10 -3 -18 -6z"/>
<path d="M4723 1295 c-22 -15 -106 -153 -118 -193 -11 -39 3 -84 56 -178 57
-99 71 -114 110 -114 44 0 44 27 -1 91 -54 77 -70 118 -70 179 0 56 19 102 69
164 24 30 29 42 20 52 -15 18 -39 18 -66 -1z"/>
<path d="M1717 653 c-4 -3 -7 -42 -7 -85 l0 -78 220 0 220 0 0 33 0 32 -70 -1
c-38 0 -70 1 -70 2 0 2 9 8 20 14 15 8 30 8 56 0 41 -14 64 -1 64 36 0 16 -7
24 -22 26 -13 2 -22 9 -20 16 1 9 -44 12 -191 12 -107 0 -197 -3 -200 -7z"/>
<path d="M2168 653 c30 -2 50 -8 47 -14 -4 -5 -15 -9 -26 -9 -17 0 -19 -7 -19
-70 l0 -70 35 0 35 0 0 85 0 85 -62 -2 -63 -2 53 -3z"/>
<path d="M2257 653 c-4 -3 -7 -15 -7 -25 0 -15 5 -17 25 -12 39 10 55 -11 55
-72 0 -54 0 -54 31 -54 29 0 30 1 15 22 -9 12 -16 33 -16 45 0 26 32 63 55 63
19 0 55 -36 55 -55 0 -11 -12 -15 -46 -15 -38 0 -45 -3 -42 -17 2 -13 14 -19
41 -21 20 -2 35 -7 32 -13 -4 -5 27 -9 76 -9 l82 0 -19 21 c-30 33 -25 96 9
125 l28 24 -184 0 c-101 0 -187 -3 -190 -7z"/>
<path d="M2690 645 c10 -12 5 -14 -30 -12 -47 2 -70 -19 -70 -61 0 -44 17 -62
60 -62 36 0 40 3 40 24 0 18 -7 26 -22 29 -19 4 -18 5 6 6 27 1 28 -1 24 -39
-3 -33 0 -40 14 -40 15 0 16 4 8 26 -13 32 -13 94 -1 94 6 0 11 -21 13 -47 3
-44 5 -48 28 -48 23 0 25 4 28 48 4 65 22 60 22 -7 0 -44 -4 -55 -17 -59 -10
-3 -2 -5 17 -6 l35 -1 -3 60 c-3 39 0 60 7 60 7 0 11 -23 11 -60 l0 -60 51 0
c46 0 49 1 35 16 -38 38 -4 124 43 109 18 -5 21 -2 21 19 0 26 -1 26 -74 26
-50 0 -76 -4 -80 -12 -5 -10 -7 -10 -12 0 -4 8 -32 12 -86 12 -69 0 -79 -2
-68 -15z"/>
<path d="M3030 581 c0 -67 -3 -80 -17 -84 -10 -3 1 -5 25 -6 39 -1 42 0 28 15
-35 34 -9 114 37 114 21 0 47 -27 47 -51 0 -16 -7 -19 -41 -19 -33 0 -40 -3
-37 -17 2 -13 14 -19 41 -21 20 -2 35 -7 32 -13 -4 -5 3 -9 14 -9 19 0 21 6
21 59 0 58 0 59 31 65 46 9 59 -7 59 -70 0 -53 0 -54 30 -54 30 0 30 0 14 25
-32 50 13 122 63 99 15 -7 14 -8 -9 -11 -35 -5 -50 -25 -46 -60 2 -23 8 -29
36 -31 17 -2 32 -7 32 -13 0 -5 14 -9 32 -9 25 0 29 3 20 12 -7 7 -12 29 -12
49 0 61 48 90 83 51 32 -35 22 -52 -29 -52 -38 0 -45 -3 -40 -16 3 -9 6 -18 6
-20 0 -2 16 -4 35 -4 19 0 35 -4 35 -10 0 -6 28 -10 65 -10 l64 0 4 83 3 82 2
-82 2 -83 35 0 35 0 0 68 c0 41 4 62 9 53 6 -9 11 -10 15 -2 10 16 32 14 50
-5 18 -17 23 -104 6 -104 -5 0 -10 20 -10 45 0 32 -5 47 -15 51 -26 10 -45
-16 -45 -62 l0 -44 61 0 c37 0 58 4 54 10 -4 6 6 10 24 10 44 0 46 15 5 39
-42 25 -42 51 -1 65 19 7 31 6 39 -2 9 -9 5 -12 -20 -12 -42 0 -43 -27 -1 -42
27 -9 30 -15 27 -39 -4 -28 -3 -29 35 -29 30 0 37 3 29 13 -13 17 -21 113 -10
129 8 10 11 10 15 1 2 -7 11 -13 19 -13 8 0 14 -4 14 -10 0 -5 -7 -10 -15 -10
-11 0 -15 -12 -15 -45 0 -33 4 -45 15 -45 8 0 15 -4 15 -10 0 -5 11 -10 25
-10 23 0 24 4 28 63 l3 62 2 -62 2 -63 46 0 c37 0 44 3 36 13 -6 7 -12 39 -13
70 -2 57 6 81 19 61 4 -6 16 -14 27 -19 19 -8 19 -9 -2 -12 -20 -4 -23 -11
-23 -49 0 -32 4 -44 15 -44 8 0 15 -4 15 -10 0 -5 17 -10 37 -10 29 0 34 3 25
12 -7 7 -11 35 -11 62 1 31 3 39 6 21 8 -65 13 -75 37 -75 27 0 36 16 36 68 0
26 3 33 11 25 6 -6 10 -33 8 -62 -4 -50 -4 -51 25 -51 21 0 26 3 18 13 -13 17
-21 113 -10 129 8 10 11 10 15 1 2 -7 11 -13 19 -13 8 0 14 -4 14 -10 0 -5 -7
-10 -15 -10 -11 0 -15 -12 -15 -45 0 -33 4 -45 15 -45 8 0 15 -4 15 -10 0 -5
17 -10 38 -10 30 1 34 3 20 11 -41 23 -12 119 35 119 21 0 47 -27 47 -51 0
-16 -7 -19 -45 -19 -25 0 -45 -4 -45 -8 0 -18 26 -32 58 -32 19 0 31 -4 27
-10 -4 -6 37 -10 114 -10 l121 0 0 85 0 85 -353 0 c-261 0 -356 -3 -365 -12
-9 -9 -12 -9 -12 0 0 9 -123 12 -525 12 l-525 0 0 -79z"/>
<path d="M2260 581 c-5 -11 -10 -36 -10 -55 0 -34 2 -36 35 -36 34 0 35 1 35
39 0 22 -3 46 -6 55 -8 22 -41 20 -54 -3z"/>
<path d="M2387 593 c-18 -17 -5 -33 28 -33 37 0 43 8 23 28 -13 13 -41 16 -51
5z"/>
<path d="M2949 579 c-16 -31 4 -71 34 -67 16 2 23 11 25 31 6 51 -37 77 -59
36z"/>
<path d="M3077 593 c-18 -18 -5 -33 28 -33 33 0 35 2 25 20 -10 19 -40 27 -53
13z"/>
<path d="M3207 593 c-4 -3 -7 -28 -7 -55 0 -47 1 -48 30 -48 28 0 30 2 30 39
0 22 -3 46 -6 55 -6 16 -35 22 -47 9z"/>
<path d="M3450 581 c-10 -19 -8 -21 25 -21 29 0 36 3 33 18 -5 25 -44 27 -58
3z"/>
<path d="M4500 581 c-10 -19 -8 -21 25 -21 29 0 36 3 33 18 -5 25 -44 27 -58
3z"/>
</g>
</svg>
